<svg width="91" height="18" viewBox="0 0 91 18" fill="none" xmlns="http://www.w3.org/2000/svg">
<path d="M6.9424 8.10535C6.26818 8.10535 5.6642 7.94382 5.13045 7.62075C4.5967 7.29769 4.17707 6.83593 3.87157 6.23546C3.56606 5.63147 3.41331 4.91337 3.41331 4.08113C3.41331 3.24188 3.56606 2.52201 3.87157 1.92154C4.18058 1.31756 4.60021 0.854036 5.13045 0.530976C5.6642 0.207915 6.26818 0.0463845 6.9424 0.0463845C7.35676 0.0463845 7.74478 0.10608 8.10647 0.225472C8.47167 0.344865 8.79824 0.518685 9.08619 0.746935C9.37413 0.975184 9.61116 1.25435 9.79727 1.58443C9.98689 1.91452 10.1133 2.2885 10.1765 2.70637H8.98611C8.94046 2.45003 8.85443 2.22529 8.72801 2.03215C8.60511 1.83551 8.45236 1.67047 8.26976 1.53703C8.09067 1.40008 7.88876 1.29824 7.66402 1.23153C7.44279 1.1613 7.20752 1.12618 6.9582 1.12618C6.50872 1.12618 6.10314 1.2403 5.74145 1.46855C5.38328 1.69329 5.1006 2.02689 4.89342 2.46934C4.68975 2.90828 4.58792 3.44555 4.58792 4.08113C4.58792 4.72023 4.69151 5.25925 4.89869 5.69819C5.10587 6.13362 5.38855 6.46371 5.74672 6.68844C6.1049 6.91318 6.50697 7.02555 6.95293 7.02555C7.20225 7.02555 7.43752 6.99219 7.65875 6.92547C7.87998 6.85875 8.08189 6.75867 8.26449 6.62524C8.44709 6.4918 8.59984 6.33027 8.72274 6.14064C8.84916 5.94751 8.93695 5.72453 8.98611 5.4717H10.1765C10.1168 5.86148 9.99567 6.2179 9.81307 6.54096C9.63047 6.86051 9.39696 7.13792 9.11252 7.37319C8.82809 7.60495 8.50327 7.7858 8.13807 7.91572C7.77288 8.04214 7.37432 8.10535 6.9424 8.10535ZM13.8931 8.10535C13.2189 8.10535 12.6149 7.94382 12.0812 7.62075C11.5474 7.29769 11.126 6.83593 10.817 6.23546C10.508 5.63147 10.3535 4.91337 10.3535 4.08113C10.3535 3.24188 10.508 2.52201 10.817 1.92154C11.126 1.31756 11.5474 0.854036 12.0812 0.530976C12.6149 0.207915 13.2189 0.0463845 13.8931 0.0463845C14.5744 0.0463845 15.1801 0.207915 15.7103 0.530976C16.2406 0.854036 16.6585 1.31756 16.964 1.92154C17.273 2.52201 17.4275 3.24188 17.4275 4.08113C17.4275 4.91688 17.273 5.63498 16.964 6.23546C16.6585 6.83593 16.2406 7.29769 15.7103 7.62075C15.1801 7.94382 14.5744 8.10535 13.8931 8.10535ZM13.8931 7.02555C14.3461 7.02555 14.7499 6.91318 15.1046 6.68844C15.4593 6.46371 15.7384 6.13187 15.9421 5.69292C16.1493 5.25398 16.2529 4.71672 16.2529 4.08113C16.2529 3.44203 16.1493 2.90301 15.9421 2.46407C15.7384 2.02162 15.4593 1.68802 15.1046 1.46329C14.7499 1.23855 14.3461 1.12618 13.8931 1.12618C13.4436 1.12618 13.0398 1.23855 12.6816 1.46329C12.327 1.68802 12.0461 2.02162 11.8389 2.46407C11.6317 2.90301 11.5281 3.44203 11.5281 4.08113C11.5281 4.71672 11.6317 5.25398 11.8389 5.69292C12.0461 6.13187 12.327 6.46371 12.6816 6.68844C13.0398 6.91318 13.4436 7.02555 13.8931 7.02555ZM24.2518 0.15173V8H23.1457L19.1688 2.24811H19.0898V8H17.9047V0.15173H19.0003L22.9929 5.91415H23.0666V0.15173H24.2518ZM24.9818 8V0.15173H29.9068V1.16832H26.167V3.53333H29.6434V4.54465H26.167V6.98341H29.9436V8H24.9818ZM33.7656 8.10535C33.0914 8.10535 32.4874 7.94382 31.9536 7.62075C31.4199 7.29769 31.0002 6.83593 30.6947 6.23546C30.3892 5.63147 30.2365 4.91337 30.2365 4.08113C30.2365 3.24188 30.3892 2.52201 30.6947 1.92154C31.0038 1.31756 31.4234 0.854036 31.9536 0.530976C32.4874 0.207915 33.0914 0.0463845 33.7656 0.0463845C34.1799 0.0463845 34.568 0.10608 34.9296 0.225472C35.2948 0.344865 35.6214 0.518685 35.9094 0.746935C36.1973 0.975184 36.4343 1.25435 36.6204 1.58443C36.8101 1.91452 36.9365 2.2885 36.9997 2.70637H35.8093C35.7636 2.45003 35.6776 2.22529 35.5512 2.03215C35.4283 1.83551 35.2755 1.67047 35.0929 1.53703C34.9138 1.40008 34.7119 1.29824 34.4872 1.23153C34.266 1.1613 34.0307 1.12618 33.7814 1.12618C33.3319 1.12618 32.9263 1.2403 32.5646 1.46855C32.2065 1.69329 31.9238 2.02689 31.7166 2.46934C31.5129 2.90828 31.4111 3.44555 31.4111 4.08113C31.4111 4.72023 31.5147 5.25925 31.7219 5.69819C31.929 6.13362 32.2117 6.46371 32.5699 6.68844C32.9281 6.91318 33.3301 7.02555 33.7761 7.02555C34.0254 7.02555 34.2607 6.99219 34.4819 6.92547C34.7032 6.85875 34.9051 6.75867 35.0877 6.62524C35.2703 6.4918 35.423 6.33027 35.5459 6.14064C35.6723 5.94751 35.7601 5.72453 35.8093 5.4717H36.9997C36.94 5.86148 36.8188 6.2179 36.6362 6.54096C36.4536 6.86051 36.2201 7.13792 35.9357 7.37319C35.6513 7.60495 35.3264 7.7858 34.9612 7.91572C34.596 8.04214 34.1975 8.10535 33.7656 8.10535ZM37.0397 1.16832V0.15173H43.1182V1.16832H40.6742V8H39.4943V1.16832H37.0397ZM43.4532 8V0.15173H48.3781V1.16832H44.6383V3.53333H48.1147V4.54465H44.6383V6.98341H48.415V8H43.4532ZM52.337 4.19175V5.182H48.8501V4.19175H52.337ZM55.5795 8.12642C54.9931 8.12642 54.484 8.03512 54.052 7.85252C53.6236 7.6664 53.2883 7.40128 53.046 7.05715C52.8037 6.71302 52.6685 6.30393 52.6404 5.82987H53.8308C53.8554 6.11431 53.9467 6.35134 54.1047 6.54096C54.2662 6.72707 54.4752 6.86578 54.7315 6.95708C54.9879 7.04838 55.2688 7.09403 55.5743 7.09403C55.9079 7.09403 56.2064 7.04135 56.4697 6.93601C56.7331 6.83066 56.9385 6.68318 57.086 6.49355C57.237 6.30042 57.3125 6.07568 57.3125 5.81934C57.3125 5.58758 57.2458 5.39796 57.1123 5.25047C56.9824 5.10299 56.8051 4.98184 56.5803 4.88703C56.3556 4.78871 56.1028 4.70267 55.8218 4.62893L54.9001 4.3761C54.268 4.20755 53.7694 3.95647 53.4042 3.62288C53.039 3.28577 52.8564 2.84507 52.8564 2.30079C52.8564 1.8478 52.9775 1.45275 53.2198 1.11565C53.4656 0.778538 53.7974 0.516929 54.2153 0.330818C54.6367 0.141196 55.109 0.0463845 55.6322 0.0463845C56.166 0.0463845 56.6348 0.141196 57.0386 0.330818C57.4459 0.516929 57.7672 0.773271 58.0025 1.09984C58.2413 1.4229 58.3659 1.79337 58.3765 2.21124H57.2282C57.1861 1.84956 57.0175 1.56863 56.7226 1.36848C56.4311 1.16832 56.0589 1.06824 55.6059 1.06824C55.2898 1.06824 55.0124 1.11916 54.7737 1.22099C54.5384 1.31931 54.3558 1.45626 54.2259 1.63184C54.0994 1.80742 54.0362 2.00933 54.0362 2.23758C54.0362 2.48339 54.1117 2.68354 54.2627 2.83805C54.4172 2.99256 54.6033 3.11546 54.8211 3.20676C55.0423 3.29455 55.2547 3.36654 55.4584 3.42272L56.2222 3.62815C56.4715 3.69135 56.7278 3.77563 56.9912 3.88098C57.2545 3.98632 57.4986 4.12503 57.7233 4.29709C57.9516 4.46565 58.1342 4.67634 58.2711 4.92917C58.4116 5.17849 58.4818 5.48048 58.4818 5.83514C58.4818 6.27408 58.3677 6.66737 58.1395 7.01502C57.9112 7.35915 57.5811 7.63129 57.1492 7.83145C56.7173 8.02809 56.1941 8.12642 55.5795 8.12642ZM58.9011 8V0.15173H63.826V1.16832H60.0862V3.53333H63.5627V4.54465H60.0862V6.98341H63.8629V8H58.9011ZM69.5474 8.10535C68.8731 8.10535 68.2692 7.94382 67.7354 7.62075C67.2017 7.29769 66.782 6.83593 66.4765 6.23546C66.171 5.63147 66.0183 4.91337 66.0183 4.08113C66.0183 3.24188 66.171 2.52201 66.4765 1.92154C66.7855 1.31756 67.2052 0.854036 67.7354 0.530976C68.2692 0.207915 68.8731 0.0463845 69.5474 0.0463845C69.9617 0.0463845 70.3497 0.10608 70.7114 0.225472C71.0766 0.344865 71.4032 0.518685 71.6911 0.746935C71.9791 0.975184 72.2161 1.25435 72.4022 1.58443C72.5919 1.91452 72.7183 2.2885 72.7815 2.70637H71.5911C71.5454 2.45003 71.4594 2.22529 71.333 2.03215C71.2101 1.83551 71.0573 1.67047 70.8747 1.53703C70.6956 1.40008 70.4937 1.29824 70.269 1.23153C70.0477 1.1613 69.8125 1.12618 69.5632 1.12618C69.1137 1.12618 68.7081 1.2403 68.3464 1.46855C67.9882 1.69329 67.7056 2.02689 67.4984 2.46934C67.2947 2.90828 67.1929 3.44555 67.1929 4.08113C67.1929 4.72023 67.2965 5.25925 67.5036 5.69819C67.7108 6.13362 67.9935 6.46371 68.3517 6.68844C68.7099 6.91318 69.1119 7.02555 69.5579 7.02555C69.8072 7.02555 70.0425 6.99219 70.2637 6.92547C70.4849 6.85875 70.6868 6.75867 70.8694 6.62524C71.052 6.4918 71.2048 6.33027 71.3277 6.14064C71.4541 5.94751 71.5419 5.72453 71.5911 5.4717H72.7815C72.7218 5.86148 72.6006 6.2179 72.418 6.54096C72.2354 6.86051 72.0019 7.13792 71.7175 7.37319C71.433 7.60495 71.1082 7.7858 70.743 7.91572C70.3778 8.04214 69.9793 8.10535 69.5474 8.10535ZM76.4981 8.10535C75.8239 8.10535 75.2199 7.94382 74.6861 7.62075C74.1524 7.29769 73.731 6.83593 73.422 6.23546C73.113 5.63147 72.9585 4.91337 72.9585 4.08113C72.9585 3.24188 73.113 2.52201 73.422 1.92154C73.731 1.31756 74.1524 0.854036 74.6861 0.530976C75.2199 0.207915 75.8239 0.0463845 76.4981 0.0463845C77.1793 0.0463845 77.7851 0.207915 78.3153 0.530976C78.8455 0.854036 79.2634 1.31756 79.5689 1.92154C79.8779 2.52201 80.0324 3.24188 80.0324 4.08113C80.0324 4.91688 79.8779 5.63498 79.5689 6.23546C79.2634 6.83593 78.8455 7.29769 78.3153 7.62075C77.7851 7.94382 77.1793 8.10535 76.4981 8.10535ZM76.4981 7.02555C76.9511 7.02555 77.3549 6.91318 77.7096 6.68844C78.0642 6.46371 78.3434 6.13187 78.5471 5.69292C78.7542 5.25398 78.8578 4.71672 78.8578 4.08113C78.8578 3.44203 78.7542 2.90301 78.5471 2.46407C78.3434 2.02162 78.0642 1.68802 77.7096 1.46329C77.3549 1.23855 76.9511 1.12618 76.4981 1.12618C76.0486 1.12618 75.6448 1.23855 75.2866 1.46329C74.9319 1.68802 74.651 2.02162 74.4438 2.46407C74.2367 2.90301 74.1331 3.44203 74.1331 4.08113C74.1331 4.71672 74.2367 5.25398 74.4438 5.69292C74.651 6.13187 74.9319 6.46371 75.2866 6.68844C75.6448 6.91318 76.0486 7.02555 76.4981 7.02555ZM80.5097 0.15173H81.9529L84.4496 6.25126H84.5391L87.0411 0.15173H88.5054V8H87.3466V2.32186H87.2729L84.95 7.98947H84.0124L81.7159 2.31659H81.6421V8H80.5097V0.15173ZM4.50259 17.1053C3.82837 17.1053 3.22439 16.9438 2.69064 16.6208C2.15688 16.2977 1.73726 15.8359 1.43175 15.2355C1.12625 14.6315 0.973499 13.9134 0.973499 13.0811C0.973499 12.2419 1.12625 11.522 1.43175 10.9215C1.74077 10.3176 2.1604 9.85404 2.69064 9.53098C3.22439 9.20791 3.82837 9.04638 4.50259 9.04638C4.91695 9.04638 5.30497 9.10608 5.66666 9.22547C6.03186 9.34486 6.35843 9.51869 6.64638 9.74693C6.93432 9.97518 7.17135 10.2544 7.35746 10.5844C7.54708 10.9145 7.6735 11.2885 7.73671 11.7064H6.5463C6.50065 11.45 6.41461 11.2253 6.2882 11.0322C6.1653 10.8355 6.01254 10.6705 5.82994 10.537C5.65086 10.4001 5.44894 10.2982 5.22421 10.2315C5.00298 10.1613 4.76771 10.1262 4.51839 10.1262C4.06891 10.1262 3.66333 10.2403 3.30164 10.4686C2.94347 10.6933 2.66079 11.0269 2.45361 11.4693C2.24994 11.9083 2.14811 12.4455 2.14811 13.0811C2.14811 13.7202 2.2517 14.2593 2.45888 14.6982C2.66606 15.1336 2.94873 15.4637 3.30691 15.6884C3.66509 15.9132 4.06716 16.0256 4.51312 16.0256C4.76244 16.0256 4.99771 15.9922 5.21894 15.9255C5.44016 15.8588 5.64208 15.7587 5.82468 15.6252C6.00728 15.4918 6.16003 15.3303 6.28293 15.1406C6.40935 14.9475 6.49714 14.7245 6.5463 14.4717H7.73671C7.67701 14.8615 7.55586 15.2179 7.37326 15.541C7.19066 15.8605 6.95715 16.1379 6.67271 16.3732C6.38828 16.605 6.06346 16.7858 5.69826 16.9157C5.33306 17.0421 4.9345 17.1053 4.50259 17.1053ZM8.78279 17H7.52391L10.3472 9.15173H11.7167L14.5347 17H13.2811L11.0583 10.5792H10.9951L8.78279 17ZM8.99348 13.9292H13.0651V14.9194H8.99348V13.9292ZM14.6643 17V9.15173H17.4665C18.0739 9.15173 18.5779 9.2641 18.9782 9.48884C19.3785 9.71006 19.6787 10.0138 19.8789 10.4001C20.079 10.7828 20.1791 11.2148 20.1791 11.6958C20.1791 12.1769 20.079 12.6106 19.8789 12.9969C19.6787 13.3796 19.3767 13.6834 18.9729 13.9081C18.5726 14.1293 18.0669 14.2399 17.4559 14.2399H15.5386V13.2392H17.3453C17.7351 13.2392 18.0494 13.1724 18.2882 13.039C18.5304 12.9056 18.706 12.723 18.8149 12.4912C18.9272 12.2559 18.9834 11.9908 18.9834 11.6958C18.9834 11.3974 18.9272 11.134 18.8149 10.9057C18.706 10.674 18.5304 10.4931 18.2882 10.3632C18.0459 10.2333 17.7298 10.1683 17.34 10.1683H15.8494V17H14.6643ZM21.7467 9.15173V17H20.5615V9.15173H21.7467ZM22.0869 10.1683V9.15173H28.1654V10.1683H25.7214V17H24.5415V10.1683H22.0869ZM28.2423 17H26.9834L29.8067 9.15173H31.1762L33.9942 17H32.7406L30.5178 10.5792H30.4545L28.2423 17ZM28.453 13.9292H32.5246V14.9194H28.453V13.9292ZM34.1237 17V9.15173H35.3089V15.9834H38.8643V17H34.1237ZM43.627 17H41.6886V15.9623H43.5585C44.1555 15.9623 44.6524 15.8517 45.0492 15.6305C45.446 15.4058 45.7427 15.0774 45.9393 14.6455C46.136 14.2101 46.2343 13.6834 46.2343 13.0653C46.2343 12.4508 46.136 11.9294 45.9393 11.5009C45.7462 11.0725 45.4565 10.7477 45.0702 10.5265C44.684 10.3018 44.2046 10.1894 43.6323 10.1894H41.6465V9.15173H43.706C44.475 9.15173 45.1352 9.30799 45.6865 9.62052C46.2378 9.93305 46.661 10.3825 46.9559 10.9689C47.2509 11.5519 47.3984 12.2507 47.3984 13.0653C47.3984 13.8835 47.2491 14.5858 46.9507 15.1722C46.6557 15.7587 46.2273 16.2099 45.6654 16.5259C45.1036 16.842 44.4241 17 43.627 17ZM42.268 9.15173V17H41.0829V9.15173H42.268ZM48.1653 17H46.9064L49.7297 9.15173H51.0992L53.9172 17H52.6636L50.4408 10.5792H50.3776L48.1653 17ZM48.376 13.9292H52.4476V14.9194H48.376V13.9292ZM58.4534 17H56.515V15.9623H58.3849C58.9819 15.9623 59.4788 15.8517 59.8756 15.6305C60.2724 15.4058 60.5691 15.0774 60.7657 14.6455C60.9624 14.2101 61.0607 13.6834 61.0607 13.0653C61.0607 12.4508 60.9624 11.9294 60.7657 11.5009C60.5726 11.0725 60.2829 10.7477 59.8966 10.5265C59.5104 10.3018 59.031 10.1894 58.4587 10.1894H56.4729V9.15173H58.5324C59.3014 9.15173 59.9616 9.30799 60.5129 9.62052C61.0642 9.93305 61.4873 10.3825 61.7823 10.9689C62.0773 11.5519 62.2248 12.2507 62.2248 13.0653C62.2248 13.8835 62.0755 14.5858 61.777 15.1722C61.4821 15.7587 61.0537 16.2099 60.4918 16.5259C59.93 16.842 59.2505 17 58.4534 17ZM57.0944 9.15173V17H55.9093V9.15173H57.0944ZM67.7533 9.15173H68.9385V14.3137C68.9385 14.8615 68.8085 15.3478 68.5487 15.7727C68.2923 16.1941 67.9307 16.5259 67.4636 16.7682C66.9966 17.007 66.4488 17.1264 65.8202 17.1264C65.1952 17.1264 64.6474 17.007 64.1768 16.7682C63.7098 16.5259 63.3463 16.1941 63.0865 15.7727C62.8302 15.3478 62.702 14.8615 62.702 14.3137V9.15173H63.8871V14.2189C63.8871 14.5735 63.9644 14.8896 64.1189 15.167C64.2769 15.4409 64.4999 15.6568 64.7878 15.8149C65.0793 15.9729 65.4234 16.0519 65.8202 16.0519C66.2205 16.0519 66.5647 15.9729 66.8526 15.8149C67.1406 15.6568 67.3618 15.4409 67.5163 15.167C67.6743 14.8896 67.7533 14.5735 67.7533 14.2189V9.15173ZM65.3251 8.41431L66.0625 6.9184H67.2424L66.2047 8.41431H65.3251ZM70.3533 9.15173L72.5392 15.541H72.6235L74.8094 9.15173H76.0841L73.2661 17H71.8966L69.0733 9.15173H70.3533ZM77.3988 9.15173V17H76.2136V9.15173H77.3988ZM80.6729 17H78.7346V15.9623H80.6045C81.2014 15.9623 81.6983 15.8517 82.0951 15.6305C82.4919 15.4058 82.7886 15.0774 82.9853 14.6455C83.1819 14.2101 83.2803 13.6834 83.2803 13.0653C83.2803 12.4508 83.1819 11.9294 82.9853 11.5009C82.7922 11.0725 82.5025 10.7477 82.1162 10.5265C81.7299 10.3018 81.2506 10.1894 80.6782 10.1894H78.6924V9.15173H80.752C81.521 9.15173 82.1811 9.30799 82.7325 9.62052C83.2838 9.93305 83.7069 10.3825 84.0019 10.9689C84.2968 11.5519 84.4443 12.2507 84.4443 13.0653C84.4443 13.8835 84.2951 14.5858 83.9966 15.1722C83.7016 15.7587 83.2732 16.2099 82.7114 16.5259C82.1495 16.842 81.4701 17 80.6729 17ZM79.314 9.15173V17H78.1288V9.15173H79.314ZM85.2112 17H83.9524L86.7756 9.15173H88.1451L90.9631 17H89.7095L87.4867 10.5792H87.4235L85.2112 17ZM85.4219 13.9292H89.4936V14.9194H85.4219V13.9292Z" fill="white"/>
</svg>
