<svg width="63" height="61" viewBox="0 0 63 61" fill="none" xmlns="http://www.w3.org/2000/svg">
<path d="M44.5507 0.621094C35.9758 0.621094 27.3703 0.621094 18.7954 0.621094C8.71995 0.621094 0.757568 8.34326 0.757568 18.0851C0.757568 26.4013 0.757568 34.7471 0.757568 43.0633C0.757568 52.8051 8.71995 60.5273 18.7954 60.5273C27.3703 60.5273 35.9758 60.5273 44.5507 60.5273C45.4081 60.5273 46.2656 60.4679 47.0925 60.3491C55.7592 59.2502 62.4966 51.8547 62.5273 43.39C62.5273 39.1428 62.5273 34.8956 62.5273 30.6782C62.5273 26.4607 62.5273 22.2729 62.5273 18.0554C62.5273 8.34326 54.5649 0.621094 44.5507 0.621094ZM57.8111 42.8257C57.8111 50.34 52.0537 55.9237 44.3057 55.9237C40.0795 55.9237 35.8839 55.9237 31.6577 55.9237C27.4315 55.9237 23.236 55.9237 19.0098 55.9237C11.323 55.9237 5.535 50.3103 5.535 42.8851C5.535 34.6877 5.535 26.4904 5.535 18.2633C5.535 10.8084 11.2924 5.2247 19.0098 5.2247C27.4622 5.2247 35.9145 5.2247 44.3669 5.2247C52.0537 5.2247 57.8111 10.8381 57.8111 18.293C57.8111 26.4607 57.8111 34.658 57.8111 42.8257Z" fill="white"/>
<path d="M31.7803 14.4617C22.5011 14.4617 15.0593 21.6195 15.0287 30.5297C15.0287 39.4399 22.4092 46.7166 31.5353 46.7166C40.7839 46.7166 48.2563 39.5587 48.2869 30.6485C48.2869 21.7086 40.9064 14.4617 31.7803 14.4617ZM31.6578 42.0833C25.1042 42.0833 19.7755 36.8857 19.7755 30.5297C19.8061 24.2035 25.1042 19.0653 31.6272 19.0356C38.1808 19.0059 43.5401 24.1738 43.5401 30.5297C43.5401 36.9154 38.2115 42.113 31.6578 42.0833Z" fill="white"/>
<path d="M50.6761 9.82849C49.3593 9.82849 48.318 10.8086 48.2874 12.0857C48.2568 13.4223 49.298 14.4321 50.6455 14.4321C51.9624 14.4321 53.0036 13.452 53.0342 12.2045C53.0648 10.868 52.0236 9.85819 50.6761 9.82849Z" fill="white"/>
</svg>
