<svg width="59" height="59" viewBox="0 0 59 59" fill="none" xmlns="http://www.w3.org/2000/svg">
<path d="M46.2554 26.1336C36.9515 20.6081 21.6048 20.1002 12.723 22.7958C11.2964 23.2286 9.78828 22.4236 9.35632 20.9972C8.92411 19.57 9.7283 18.0627 11.1555 17.6292C21.3515 14.5344 38.3001 15.1321 49.0111 21.4901C50.2942 22.2519 50.7146 23.9087 49.9543 25.1893C49.1933 26.4722 47.535 26.8954 46.2552 26.1336M45.9507 34.3172C45.298 35.3765 43.9129 35.7087 42.8551 35.0583C35.0988 30.2905 23.2706 28.9091 14.0939 31.6947C12.904 32.054 11.6469 31.3835 11.2855 30.1954C11.1132 29.6243 11.1745 29.0081 11.4557 28.4821C11.737 27.956 12.2155 27.563 12.7861 27.3891C23.2691 24.2078 36.3014 25.7484 45.2103 31.2235C46.2681 31.8749 46.6011 33.2604 45.9507 34.3172ZM42.4188 42.1766C42.2959 42.3786 42.1343 42.5543 41.9434 42.6937C41.7525 42.8331 41.5359 42.9335 41.3062 42.9891C41.0764 43.0447 40.8379 43.0544 40.6044 43.0178C40.3708 42.9811 40.1468 42.8987 39.9452 42.7753C33.1673 38.6329 24.636 37.6973 14.5889 39.9923C14.3587 40.045 14.1203 40.0517 13.8875 40.0122C13.6547 39.9728 13.4319 39.8878 13.2319 39.7622C13.0319 39.6366 12.8587 39.4728 12.722 39.2803C12.5853 39.0877 12.4879 38.8701 12.4353 38.6398C12.3824 38.4095 12.3754 38.1711 12.4148 37.9381C12.4541 37.7051 12.5391 37.4821 12.6647 37.282C12.7904 37.0819 12.9543 36.9085 13.1471 36.7719C13.3398 36.6352 13.5576 36.5379 13.7881 36.4855C24.7828 33.9724 34.214 35.0539 41.8219 39.7028C42.0236 39.826 42.199 39.9877 42.3382 40.1787C42.4773 40.3697 42.5775 40.5863 42.633 40.816C42.6884 41.0457 42.6981 41.2841 42.6614 41.5176C42.6246 41.7511 42.5421 41.975 42.4188 42.1766ZM29.1812 0.54541C13.2411 0.54541 0.318115 13.4678 0.318115 29.4085C0.318115 45.3508 13.2411 58.2727 29.1815 58.2727C45.1227 58.2727 58.0454 45.3508 58.0454 29.4085C58.0454 13.4681 45.1227 0.54541 29.1812 0.54541Z" fill="white"/>
</svg>
