<svg width="84" height="61" viewBox="0 0 84 61" fill="none" xmlns="http://www.w3.org/2000/svg">
<path d="M80.0476 5.74175C77.0609 2.10468 71.5465 0.621094 61.0153 0.621094H22.7869C12.0147 0.621094 6.40685 2.20038 3.43133 6.07259C0.530273 9.84801 0.530273 15.4108 0.530273 23.1098V37.7841C0.530273 52.6996 3.97236 60.2726 22.7869 60.2726H61.0155C70.1481 60.2726 75.2088 58.9635 78.4827 55.7537C81.8402 52.4623 83.2727 47.0882 83.2727 37.7841V23.1098C83.2727 14.9905 83.0482 9.39495 80.0476 5.74175ZM53.6512 32.4729L36.2918 41.7668C35.9037 41.9746 35.4793 42.0777 35.0555 42.0777C34.5756 42.0777 34.0967 41.9454 33.6726 41.6823C32.874 41.1866 32.3864 40.2999 32.3864 39.3435V20.8153C32.3864 19.8605 32.8727 18.9746 33.6697 18.4786C34.4669 17.9826 35.4585 17.9487 36.2857 18.3889L53.645 27.6229C54.5282 28.0927 55.0829 29.0267 55.0842 30.0457C55.0853 31.0656 54.5331 32.001 53.6512 32.4729Z" fill="white"/>
</svg>
