<svg width="56" height="40" viewBox="0 0 56 40" fill="none" xmlns="http://www.w3.org/2000/svg">
<path d="M53.8173 3.43371C51.7958 0.994838 48.0637 0 40.9362 0H15.0633C7.77262 0 3.97726 1.05901 1.96343 3.65557C0 6.18722 0 9.9174 0 15.0801V24.9201C0 34.9218 2.3296 40 15.0633 40H40.9364C47.1173 40 50.5423 39.1221 52.7581 36.9698C55.0305 34.7627 56 31.159 56 24.9201V15.0801C56 9.6356 55.8481 5.88341 53.8173 3.43371ZM35.9522 21.3586L24.2034 27.5907C23.9407 27.7301 23.6535 27.7992 23.3666 27.7992C23.0418 27.7992 22.7178 27.7105 22.4307 27.5341C21.8902 27.2017 21.5602 26.6071 21.5602 25.9657V13.5414C21.5602 12.9012 21.8893 12.3071 22.4287 11.9746C22.9683 11.642 23.6394 11.6192 24.1992 11.9144L35.948 18.1064C36.5458 18.4214 36.9212 19.0477 36.9221 19.731C36.9228 20.4149 36.549 21.0421 35.9522 21.3586Z" fill="#48494A"/>
</svg>
